# xmcd
#
# Track frame offsets: 
#        150
#        30404
#        42237
#        55737
#        84413
#        94774
#        106617
#        123143
#        138197
#        157360
#        169842
#        186261
#        207275
#        226077
#        253610
#        269111
#        284375
#        294592
#
# Disc length: 4205 seconds
#
# Revision: 0
# Processed by: cddbd v1.5.2PL0 Copyright (c) Steve Scherf et al.
# Submitted via: ExactAudioCopy v1.0b3
#
DISCID=fb106b12
DTITLE=Bob Dylan - Throughout The USA
DYEAR=2012
DGENRE=Acoustic
TTITLE0=A Hard Rain's Gonna Fall
TTITLE1=Blowin' In The Wind
TTITLE2=Baby, Let Me Follow You Down
TTITLE3=Long John
TTITLE4=Cocaine Blues
TTITLE5=Vd Gunner's Blues
TTITLE6=See That My Grave Is Kept Clean
TTITLE7=Ramblin' Around
TTITLE8=Black Cross
TTITLE9=My Own True Love
TTITLE10=Bob Dylan's Dream
TTITLE11=Boots Of Spanish Leather
TTITLE12=Gospel Plow
TTITLE13=The 1913 Massacre
TTITLE14=Fixin' To Die
TTITLE15=Talkin' New York
TTITLE16=Man On The Street
TTITLE17=John Brown
EXTD=
EXTT0=
EXTT1=
EXTT2=
EXTT3=
EXTT4=
EXTT5=
EXTT6=
EXTT7=
EXTT8=
EXTT9=
EXTT10=
EXTT11=
EXTT12=
EXTT13=
EXTT14=
EXTT15=
EXTT16=
EXTT17=
PLAYORDER=
